<svg version="1.1" id="Layer_1" xmlns="http://www.w3.org/2000/svg" x="0" y="0" viewBox="0 0 427.7 427.7" style="enable-background:new 0 0 427.7 427.7" xml:space="preserve"><style>.st0{fill:#fff}</style><path d="M756.7 50.7c-118.1 0-213.8 95.7-213.8 213.8s95.7 213.8 213.8 213.8 213.8-95.7 213.8-213.8S874.8 50.7 756.7 50.7zm93 310.3c-2.7 4.7-7.6 7.2-12.6 7.2-2.5 0-5-.6-7.4-2-38.4-22.5-82.8-26.1-113.3-25.1-33.8 1-58.5 7.7-58.8 7.8-7.8 2.1-15.8-2.5-18-10.2-2.1-7.8 2.4-15.8 10.2-18 1.1-.3 27.8-7.5 64.8-8.8 21.8-.7 42.8.8 62.4 4.5 24.8 4.7 47.5 13 67.3 24.6 7.1 4.1 9.5 13 5.4 20zm27.2-56.5c-3.2 5.5-9 8.6-15 8.6-3 0-6-.8-8.7-2.4-45.5-26.6-98.1-30.9-134.2-29.8-40 1.2-69.3 9.1-69.6 9.2-9.2 2.5-18.7-2.9-21.3-12.1-2.5-9.2 2.9-18.7 12.1-21.3 1.3-.4 32.9-8.9 76.8-10.4 25.9-.9 50.7.9 74 5.4 29.4 5.6 56.2 15.4 79.7 29.1 8.3 4.9 11 15.5 6.2 23.7zm16.7-51.3c-3.6 0-7.3-.9-10.7-2.9-108.2-63.2-248.6-25.6-250-25.3-11.3 3.1-23-3.5-26.1-14.8-3.1-11.3 3.5-23 14.8-26.1 1.6-.4 40.3-11 94.2-12.7 31.7-1 62.2 1.2 90.7 6.6 36.1 6.8 69 18.9 97.8 35.7 10.1 5.9 13.5 18.9 7.6 29.1-3.9 6.6-11 10.4-18.3 10.4z"/><path class="st0" d="M175.9 210.8c8.9-4.5 15.6-9.4 20.2-14.8 8.2-9.7 12.2-22.5 12.2-38.4 0-15.5-4-28.7-12.1-39.8C182.8 99.7 160 90.4 127.7 90H0v260.7h119.1c13.4 0 25.8-1.1 37.3-3.5 11.5-2.4 21.4-6.7 29.9-13.1 7.5-5.5 13.7-12.4 18.7-20.5 7.9-12.2 11.8-26.1 11.8-41.6 0-15-3.4-27.7-10.3-38.2-6.9-10.5-17.1-18.2-30.6-23zM52.7 135.2h57.5c12.6 0 23.1 1.4 31.2 4.1 9.5 3.9 14.2 11.9 14.2 24.1 0 10.9-3.6 18.6-10.7 22.9-7.2 4.3-16.5 6.5-28 6.5H52.7v-57.6zm90.9 165.6c-6.4 3.1-15.3 4.6-26.8 4.6H52.7v-69.5h65.1c11.3.1 20.2 1.6 26.5 4.4 11.2 5.1 16.8 14.4 16.8 28-.1 16-5.8 26.8-17.5 32.5zM273.3 102.1h113.3v32.5H273.3zM425.9 230.2c-2.4-15.1-7.5-28.4-15.6-39.9-8.8-13-20.1-22.5-33.7-28.5-13.6-6-28.9-9.1-46-9-28.6 0-51.9 9-69.9 26.7-17.9 17.8-26.9 43.5-26.9 76.9 0 35.6 9.9 61.4 29.9 77.2 19.9 15.8 42.8 23.7 68.8 23.7 31.5 0 56-9.4 73.5-28.1 11.2-11.8 17.5-23.4 18.9-34.9h-52.2c-3 5.6-6.5 10.1-10.5 13.3-7.3 5.9-16.7 8.8-28.3 8.8-11 0-20.4-2.4-28.2-7.3-12.9-7.8-19.6-21.3-20.5-40.7h142.4c.2-16.6-.3-29.4-1.7-38.2zm-139.4 5c1.9-12.5 6.4-22.5 13.6-29.8 7.2-7.3 17.4-11 30.5-11 12.1 0 22.1 3.4 30.3 10.4 8.1 7 12.7 17.1 13.6 30.5h-88z"/><path d="M658.5-462.6c-23.1 0-38.3 15-38.3 34.7 0 19.3 14.7 34.7 37.4 34.7h.4c23.6 0 38.3-15.4 38.3-34.7-.4-19.7-14.7-34.7-37.8-34.7zM624.2-365.7h67.7v201h-67.7v-201zM857.9-370.5c-36.5 0-61 33.9-61 33.9v-29.1h-67.7v201H797V-277c0-6 .4-12 2.2-16.3 4.9-12 16-24.4 34.7-24.4 24.5 0 34.3 18.4 34.3 45.5v107.5h67.7V-280c-.1-61.7-33.4-90.5-78-90.5z"/></svg>