<svg xmlns="http://www.w3.org/2000/svg" viewBox="0 0 427.7 427.7" style="enable-background:new 0 0 427.7 427.7" xml:space="preserve"><path d="M645.3 71.3c-118.1 0-213.8 95.7-213.8 213.8s95.7 213.8 213.8 213.8 213.8-95.7 213.8-213.8S763.4 71.3 645.3 71.3zm93.1 310.3c-2.7 4.7-7.6 7.2-12.6 7.2-2.5 0-5-.6-7.4-2-38.4-22.5-82.8-26.1-113.3-25.1-33.8 1-58.5 7.7-58.8 7.8-7.8 2.1-15.8-2.5-18-10.2-2.1-7.8 2.4-15.8 10.2-18 1.1-.3 27.8-7.5 64.8-8.8 21.8-.7 42.8.8 62.4 4.5 24.8 4.7 47.5 13 67.3 24.6 7.1 4.1 9.4 13 5.4 20zm27.2-56.5c-3.2 5.5-9 8.6-15 8.6-3 0-6-.8-8.7-2.4-45.5-26.6-98.1-30.9-134.2-29.8-40 1.2-69.3 9.1-69.6 9.2-9.2 2.5-18.7-2.9-21.3-12.1-2.5-9.2 2.9-18.7 12.1-21.3 1.3-.4 32.9-8.9 76.8-10.4 25.9-.9 50.7.9 74 5.4 29.4 5.6 56.2 15.4 79.7 29.1 8.2 4.9 11 15.5 6.2 23.7zm16.7-51.3c-3.6 0-7.3-.9-10.7-2.9-108.2-63.2-248.6-25.6-250-25.3-11.3 3.1-23-3.5-26.1-14.8-3.1-11.3 3.5-23 14.8-26.1 1.6-.4 40.3-11 94.2-12.7 31.7-1 62.2 1.2 90.7 6.6 36.1 6.8 69 18.9 97.8 35.7 10.1 5.9 13.5 18.9 7.6 29.1-3.9 6.6-11 10.4-18.3 10.4zM-505.5-1.9c-31.4 0-51.9 20.6-51.9 47.7 0 26.5 19.9 47.6 50.7 47.6h.6c32 0 51.9-21.2 51.9-47.6-.6-27.1-19.9-47.7-51.3-47.7zM-551.9 131.1h91.7v275.8h-91.7V131.1zM-235.2 124.6c-49.5 0-82.6 46.5-82.6 46.5v-40h-91.7v275.8h91.7v-154c0-8.2.6-16.5 3-22.4 6.6-16.5 21.7-33.5 47-33.5 33.2 0 46.4 25.3 46.4 62.4v147.5h91.7V248.8c0-84.7-45.2-124.2-105.5-124.2zM491.3-383.4c8.9-4.5 15.6-9.4 20.2-14.8 8.2-9.7 12.2-22.5 12.2-38.4 0-15.5-4-28.7-12.1-39.8-13.5-18.1-36.3-27.3-68.5-27.8H315.4v260.7h119.1c13.4 0 25.8-1.1 37.3-3.5 11.5-2.4 21.4-6.7 29.9-13.1 7.5-5.5 13.7-12.4 18.7-20.5 7.9-12.2 11.8-26.1 11.8-41.6 0-15-3.4-27.7-10.3-38.2-6.9-10.4-17.1-18.1-30.6-23zm-123.2-75.5h57.5c12.6 0 23.1 1.4 31.2 4.1 9.5 3.9 14.2 11.9 14.2 24.1 0 10.9-3.6 18.6-10.7 22.9-7.2 4.3-16.5 6.5-28 6.5H368v-57.6zM459-293.3c-6.4 3.1-15.3 4.6-26.8 4.6H368v-69.5h65.1c11.3.1 20.2 1.6 26.5 4.4 11.2 5.1 16.8 14.4 16.8 28 0 16-5.8 26.8-17.4 32.5zM588.7-492H702v32.5H588.7zM741.3-364c-2.4-15.1-7.5-28.4-15.6-39.9-8.8-13-20.1-22.5-33.7-28.5-13.6-6-28.9-9.1-46-9-28.6 0-51.9 9-69.9 26.7-17.9 17.8-26.9 43.5-26.9 76.9 0 35.6 9.9 61.4 29.9 77.2 19.9 15.8 42.8 23.7 68.8 23.7 31.5 0 56-9.4 73.5-28.1 11.2-11.8 17.5-23.4 18.9-34.9h-52.2c-3 5.6-6.5 10.1-10.5 13.3-7.3 5.9-16.7 8.8-28.3 8.8-11 0-20.4-2.4-28.2-7.3-12.9-7.8-19.6-21.3-20.5-40.7H743c.2-16.5-.3-29.3-1.7-38.2zm-139.4 5c1.9-12.5 6.4-22.5 13.6-29.8 7.2-7.3 17.4-11 30.5-11 12.1 0 22.1 3.4 30.3 10.4 8.1 7 12.7 17.1 13.6 30.5h-88z"/><path d="M213.9 104.2c-60.7 0-109.6 48.9-109.6 109.6s48.9 109.6 109.6 109.6 109.6-48.9 109.6-109.6-48.9-109.6-109.6-109.6zm0 180.9c-39.2 0-71.3-32-71.3-71.3s32-71.3 71.3-71.3 71.3 32 71.3 71.3-32.1 71.3-71.3 71.3zM353.5 99.7c0 14.2-11.4 25.6-25.6 25.6-14.2 0-25.6-11.4-25.6-25.6s11.4-25.6 25.6-25.6 25.6 11.5 25.6 25.6zm72.6 26c-1.6-34.3-9.4-64.6-34.5-89.6-25-25-55.3-32.8-89.6-34.5-35.3-2-141.1-2-176.4 0C91.5 3.2 61.1 11 36 36S3.2 91.3 1.5 125.6c-2 35.3-2 141.1 0 176.4 1.6 34.3 9.4 64.6 34.5 89.6s55.3 32.8 89.6 34.5c35.3 2 141.1 2 176.4 0 34.3-1.6 64.6-9.4 89.6-34.5 25-25 32.8-55.3 34.5-89.6 2.1-35.3 2.1-141 0-176.3zm-45.6 214.2c-7.4 18.7-21.8 33.1-40.6 40.6-28.1 11.2-94.9 8.6-126 8.6s-98 2.5-126-8.6c-18.7-7.4-33.1-21.8-40.6-40.6-11.2-28.1-8.6-94.9-8.6-126s-2.5-98 8.6-126C54.6 69.1 69 54.7 87.8 47.2c28.1-11.2 94.9-8.6 126-8.6s98-2.5 126 8.6c18.7 7.4 33.1 21.8 40.6 40.6 11.2 28.1 8.6 94.9 8.6 126s2.7 98-8.5 126.1z" style="fill:#fff"/></svg>