<svg version="1.1" id="Layer_1" xmlns="http://www.w3.org/2000/svg" x="0" y="0" viewBox="0 0 427.7 427.7" style="enable-background:new 0 0 427.7 427.7" xml:space="preserve"><style>.st0{fill:#fff}</style><path d="M212.8-453.3C94.7-453.3-1.1-357.6-1.1-239.5S94.7-25.7 212.8-25.7s213.8-95.7 213.8-213.8-95.7-213.8-213.8-213.8zm93 310.3c-2.7 4.7-7.6 7.2-12.6 7.2-2.5 0-5-.6-7.4-2-38.4-22.5-82.8-26.1-113.3-25.1-33.8 1-58.5 7.7-58.8 7.8-7.8 2.1-15.8-2.5-18-10.2-2.1-7.8 2.4-15.8 10.2-18 1.1-.3 27.8-7.5 64.8-8.8 21.8-.7 42.8.8 62.4 4.5 24.8 4.7 47.5 13 67.3 24.6 7.2 4.1 9.5 13 5.4 20zm27.2-56.4c-3.2 5.5-9 8.6-15 8.6-3 0-6-.8-8.7-2.4-45.5-26.6-98.1-30.9-134.2-29.8-40 1.2-69.3 9.1-69.6 9.2-9.2 2.5-18.7-2.9-21.3-12.1-2.5-9.2 2.9-18.7 12.1-21.3 1.3-.4 32.9-8.9 76.8-10.4 25.9-.9 50.7.9 74 5.4 29.4 5.6 56.2 15.4 79.7 29.1 8.3 4.8 11 15.4 6.2 23.7zm16.7-51.4c-3.6 0-7.3-.9-10.7-2.9C230.8-316.9 90.4-279.3 89-279c-11.3 3.1-23-3.5-26.1-14.8-3.1-11.3 3.5-23 14.8-26.1 1.6-.4 40.3-11 94.2-12.7 31.7-1 62.2 1.2 90.7 6.6 36.1 6.8 69 18.9 97.8 35.7 10.1 5.9 13.5 18.9 7.6 29.1-3.9 6.7-11 10.4-18.3 10.4z"/><path class="st0" d="M646.3-294.5c8.9-4.5 15.6-9.4 20.2-14.8 8.2-9.7 12.2-22.5 12.2-38.4 0-15.5-4-28.7-12.1-39.8-13.5-18.1-36.3-27.3-68.5-27.8H470.4v260.7h119.1c13.4 0 25.8-1.1 37.3-3.5 11.5-2.4 21.4-6.7 29.9-13.1 7.5-5.5 13.7-12.4 18.7-20.5 7.9-12.2 11.8-26.1 11.8-41.6 0-15-3.4-27.7-10.3-38.2-7-10.4-17.1-18.1-30.6-23zM523-370h57.5c12.6 0 23.1 1.4 31.2 4.1 9.5 3.9 14.2 11.9 14.2 24.1 0 10.9-3.6 18.6-10.7 22.9-7.2 4.3-16.5 6.5-28 6.5H523V-370zm91 165.6c-6.4 3.1-15.3 4.6-26.8 4.6H523v-69.5h65.1c11.3.1 20.2 1.6 26.5 4.4 11.2 5.1 16.8 14.4 16.8 28 0 16-5.8 26.8-17.4 32.5zM743.6-403.1h113.3v32.5H743.6zM896.3-275.1c-2.4-15.1-7.5-28.4-15.6-39.9-8.8-13-20.1-22.5-33.7-28.5-13.6-6-28.9-9.1-46-9-28.6 0-51.9 9-69.9 26.7-17.9 17.8-26.9 43.5-26.9 76.9 0 35.6 9.9 61.4 29.9 77.2 19.9 15.8 42.8 23.7 68.8 23.7 31.5 0 56-9.4 73.5-28.1 11.2-11.8 17.5-23.4 18.9-34.9h-52.2c-3 5.6-6.5 10.1-10.5 13.3-7.3 5.9-16.7 8.8-28.3 8.8-11 0-20.4-2.4-28.2-7.3-12.9-7.8-19.6-21.3-20.5-40.7H898c.2-16.5-.4-29.3-1.7-38.2zm-139.4 5c1.9-12.5 6.4-22.5 13.6-29.8 7.2-7.3 17.4-11 30.5-11 12.1 0 22.1 3.4 30.3 10.4 8.1 7 12.7 17.1 13.6 30.5h-88zM150.3 74.7c-23.1 0-38.3 15-38.3 34.7 0 19.3 14.7 34.7 37.4 34.7h.4c23.6 0 38.3-15.4 38.3-34.7-.4-19.7-14.7-34.7-37.8-34.7zM116 171.6h67.7v201H116v-201zM349.8 166.8c-36.5 0-61 33.9-61 33.9v-29.1h-67.7v201h67.7V260.3c0-6 .4-12 2.2-16.3 4.9-12 16-24.4 34.7-24.4 24.5 0 34.3 18.4 34.3 45.5v107.5h67.7V257.3c0-61.7-33.4-90.5-77.9-90.5z"/></svg>